<svg id="logo_gradient1" xmlns="http://www.w3.org/2000/svg" xmlns:xlink="http://www.w3.org/1999/xlink" viewBox="0 0 809.8 667.85"><defs><style>.cls-1{fill:url(#linear-gradient);}.cls-2{fill:url(#linear-gradient-2);}.cls-3{fill:url(#linear-gradient-3);}.cls-4{fill:url(#linear-gradient-4);}.cls-5{fill:url(#linear-gradient-5);}</style><linearGradient id="linear-gradient" x1="165.95" y1="762.35" x2="691.65" y2="-180.43" gradientUnits="userSpaceOnUse"><stop offset="0" stop-color="#cc00f4"/><stop offset="0.06" stop-color="#c308f2"/><stop offset="0.17" stop-color="#a91fee"/><stop offset="0.31" stop-color="#8044e7"/><stop offset="0.46" stop-color="#4777de"/><stop offset="0.57" stop-color="#1e9cd7"/><stop offset="0.99" stop-color="#00ff97"/></linearGradient><linearGradient id="linear-gradient-2" x1="428.56" y1="912.79" x2="957.19" y2="-35.25" xlink:href="#linear-gradient"/><linearGradient id="linear-gradient-3" x1="51.48" y1="702.53" x2="580.11" y2="-245.51" xlink:href="#linear-gradient"/><linearGradient id="linear-gradient-4" x1="277.36" y1="830.16" x2="805.99" y2="-117.87" xlink:href="#linear-gradient"/><linearGradient id="linear-gradient-5" x1="-98.59" y1="618.13" x2="429.71" y2="-329.32" xlink:href="#linear-gradient"/></defs><title>zinnin</title><path class="cls-1" d="M352.75,668.31c-4.44,0-8.24-6.25-8.24-13.38V8.42C344.51,4,347-.5,350.21-.5H458.63c4.44,0,7.6,3.57,7.6,8.92V656.71c0,5.35-3.16,11.6-7.6,11.6Z"/><path class="cls-2" d="M495.18,359.16c0-2.93,3.56-5.45,7.83-5.45H623.35c5,0,8.55,1.68,10,5L676,453.12c1.43,3.36,3.56,5,5,5,2.14,0,4.27-1.68,4.27-5.46V359.16c0-2.93,3.56-5.45,8.54-5.45H800.65c5.7,0,9.26,2.94,9.26,5.87V662.85c0,2.94-2.85,5.46-7.83,5.46H668.92c-2.85,0-7.12-1.68-7.83-4.2l-31.33-75.5c-1.42-4.2-4.27-5.87-6.41-5.87s-3.56,1.67-3.56,5.87v74.24c0,2.94-4.27,5.46-9.25,5.46H502.3c-4.27,0-7.12-2.52-7.12-5.88Z"/><path class="cls-3" d="M.86,359.16c0-2.93,3.56-5.45,7.83-5.45H129c5,0,8.54,1.68,10,5l42.72,94.38c1.42,3.36,3.56,5,5,5,2.14,0,4.27-1.68,4.27-5.46V359.16c0-2.93,3.56-5.45,8.55-5.45H306.33c5.7,0,9.25,2.94,9.25,5.87V662.85c0,2.94-2.85,5.46-7.83,5.46H174.6c-2.85,0-7.12-1.68-7.84-4.2l-31.33-75.5c-1.42-4.2-4.27-5.87-6.4-5.87s-3.56,1.67-3.56,5.87v74.24c0,2.94-4.28,5.46-9.26,5.46H8c-4.27,0-7.12-2.52-7.12-5.88Z"/><path class="cls-4" d="M495.36,5.05c0-2.93,3.56-5.45,7.83-5.45H623.53c5,0,8.54,1.68,10,5L676.22,99c1.43,3.36,3.56,5,5,5,2.14,0,4.28-1.68,4.28-5.46V5.05C685.48,2.12,689-.4,694-.4H800.83c5.7,0,9.26,2.94,9.26,5.87V308.74c0,2.94-2.85,5.46-7.83,5.46H669.1c-2.85,0-7.12-1.68-7.83-4.2l-31.33-75.5c-1.42-4.2-4.28-5.87-6.41-5.87S620,230.3,620,234.5v74.24c0,2.94-4.28,5.46-9.26,5.46H502.48c-4.27,0-7.12-2.52-7.12-5.88Z"/><path class="cls-5" d="M311.49-.1H8C5.05-.1.08,4.09.08,9.79V115.88a8.21,8.21,0,0,0,7.48,8H101.1a5.07,5.07,0,0,1,5.46,4.89c0,1.43-1.68,3.87-5,5.3L6.13,177c-3.36,1.43-6,5.14-6,10.13V307.44c0,4.12,4.34,6.46,8.66,6.46H310.83c2.94,0,4.25-2.21,4.25-7.91V199.18c0-5-.89-8.28-3.83-8.28H217.71c-3.77,0-5.45-2.26-5.45-4.4,0-1.43,1.68-3.63,5-5.05l93.88-42.76c3.36-1.42,4.54-5.09,4.54-10.07,0,0,.49-120.48.49-120.5C316.18,4,314.3-.1,311.49-.1Z"/></svg>